<?xml version="1.0" encoding="utf-8"?>
<!-- Generator: Adobe Illustrator 23.0.1, SVG Export Plug-In . SVG Version: 6.00 Build 0)  -->
<svg version="1.1" id="Layer_1" xmlns="http://www.w3.org/2000/svg" xmlns:xlink="http://www.w3.org/1999/xlink" x="0px" y="0px"
	 viewBox="0 0 8.8 5.6" style="enable-background:new 0 0 8.8 5.6;" xml:space="preserve">
<style type="text/css">
	.st0{fill:#112233;}
</style>
<title>logo-topbar</title>
<path class="st0" d="M3.9,5.4C4,5.6,4.2,5.6,4.4,5.6c0.2,0,0.3-0.1,0.5-0.2l3.7-3.7c0.1-0.1,0.2-0.3,0.2-0.5c0-0.2-0.1-0.3-0.2-0.5
	L7.9,0.2C7.8,0.1,7.6,0,7.5,0C7.3,0,7.1,0.1,7,0.2L4.4,2.8L1.8,0.2C1.6,0.1,1.4,0,1.3,0C1.1,0,0.9,0.1,0.8,0.2L0.2,0.8
	C0.1,0.9,0,1.1,0,1.3c0,0.2,0.1,0.4,0.2,0.5L3.9,5.4z"/>
</svg>
