<?xml version="1.0" encoding="utf-8"?>
<!-- Generator: Adobe Illustrator 23.0.1, SVG Export Plug-In . SVG Version: 6.00 Build 0)  -->
<svg version="1.1" id="Layer_1" xmlns="http://www.w3.org/2000/svg" xmlns:xlink="http://www.w3.org/1999/xlink" x="0px" y="0px"
	 viewBox="0 0 39 33" style="enable-background:new 0 0 39 33;" xml:space="preserve">
<style type="text/css">
	.st0{opacity:0.22;fill:#2299FF;enable-background:new    ;}
	.st1{fill:#112233;}
</style>
<title>logo-topbar</title>
<path class="st0" d="M37.9,30.9c0.3,0,0.6,0.1,0.8,0.3c0.2,0.2,0.3,0.5,0.3,0.7v0.5c0,0.1-0.1,0.3-0.2,0.4C38.7,33,38.6,33,38.5,33
	H4.3c-0.1,0-0.3,0-0.4-0.1c-0.1-0.1-0.1-0.3-0.1-0.4v-0.5c0-0.3,0.1-0.5,0.3-0.7c0.2-0.2,0.5-0.3,0.8-0.3H6v-2.7
	c0-0.4,0.1-0.8,0.5-1.2c0.3-0.3,0.7-0.5,1.2-0.5h2.8h2.2H17h2.2h4.4h2.2h4.4h2.2h2.8c0.4,0,0.8,0.2,1.2,0.5c0.3,0.3,0.5,0.7,0.5,1.2
	v2.7H37.9z M38.5,9.7c0.3,0.1,0.6,0.4,0.6,0.7v0.6c0,0.3-0.1,0.5-0.3,0.6c-0.1,0.1-0.3,0.2-0.6,0.2h-1.4v0.8c0,0.3-0.1,0.5-0.3,0.6
	c-0.1,0.1-0.3,0.2-0.6,0.2H6.8c-0.3,0-0.5-0.1-0.6-0.2C6,13.2,6,13,6,12.7v-0.8H4.6c-0.3,0-0.5-0.1-0.6-0.2
	c-0.1-0.1-0.2-0.3-0.2-0.6v-0.6c0-0.3,0.1-0.6,0.6-0.7l16.1-6.9c0.7-0.2,1.4-0.2,2.1,0L38.5,9.7z"/>
<path class="st1" d="M33.6,28.2c0.3,0,0.5,0.1,0.7,0.3c0.2,0.2,0.3,0.5,0.3,0.7v0.5c0,0.1-0.1,0.3-0.2,0.4c-0.1,0.1-0.2,0.1-0.3,0.1
	H0.5c-0.1,0-0.3,0-0.4-0.1C0,30.1,0,29.9,0,29.8v-0.5c0-0.3,0.1-0.5,0.3-0.7c0.2-0.2,0.5-0.3,0.8-0.3h1.1v-2.7
	c0-0.4,0.1-0.8,0.5-1.2c0.3-0.3,0.7-0.5,1.2-0.5h2.7V11.9h2.2v11.9H13V11.9h2.2v11.9h4.3V11.9h2.2v11.9H26V11.9h2.2v11.9h2.7
	c0.4,0,0.8,0.2,1.2,0.5c0.3,0.3,0.5,0.7,0.5,1.2v2.7H33.6z M4.3,26v2.2h26V26H4.3z M34.1,7.1c0.3,0.1,0.5,0.4,0.5,0.7v0.6
	c0,0.3-0.1,0.5-0.3,0.6c-0.1,0.1-0.3,0.2-0.5,0.2h-1.4V10c0,0.3-0.1,0.5-0.3,0.6c-0.1,0.1-0.3,0.2-0.5,0.2H3c-0.3,0-0.5-0.1-0.6-0.2
	c-0.1-0.1-0.2-0.3-0.2-0.6V9.2H0.8C0.5,9.2,0.3,9.2,0.2,9C0.1,8.9,0,8.7,0,8.4V7.8c0-0.3,0.1-0.6,0.5-0.7l15.8-6.9
	c0.7-0.2,1.4-0.2,2,0L34.1,7.1z M30.3,8.7V7.7L17.6,2.3c-0.2-0.1-0.4-0.1-0.5,0L4.3,7.7v0.9H30.3z"/>
</svg>
